<?xml version="1.0" encoding="iso-8859-1"?>
<!-- Generator: Adobe Illustrator 19.0.0, SVG Export Plug-In . SVG Version: 6.00 Build 0)  -->
<svg xmlns="http://www.w3.org/2000/svg" xmlns:xlink="http://www.w3.org/1999/xlink" version="1.1" id="Capa_1" x="0px" y="0px" viewBox="0 0 512 512" style="enable-background:new 0 0 512 512;" xml:space="preserve" width="512px" height="512px">
<g>
	<g>
		<path d="M437.02,74.98C388.667,26.629,324.38,0,256,0S123.333,26.629,74.98,74.98C26.629,123.333,0,187.62,0,256    s26.629,132.667,74.98,181.02C123.333,485.371,187.62,512,256,512s132.667-26.629,181.02-74.98    C485.371,388.667,512,324.38,512,256S485.371,123.333,437.02,74.98z M256,482C131.383,482,30,380.617,30,256S131.383,30,256,30    s226,101.383,226,226S380.617,482,256,482z" fill="#D80027"/>
	</g>
</g>
<g>
	<g>
		<path d="M351.785,102.41C323.087,84.479,289.966,75,256,75c-99.804,0-181,81.196-181,181c0,33.966,9.479,67.087,27.41,95.785    l9.993,15.992l255.374-255.374L351.785,102.41z M118.747,319.007C109.714,299.347,105,277.887,105,256    c0-83.262,67.738-151,151-151c21.887,0,43.347,4.714,63.007,13.747L118.747,319.007z" fill="#D80027"/>
	</g>
</g>
<g>
	<g>
		<path d="M409.59,160.215l-9.993-15.992L144.223,399.597l15.992,9.993C188.913,427.521,222.034,437,256,437    c99.804,0,181-81.196,181-181C437,222.034,427.521,188.913,409.59,160.215z M256,407c-21.887,0-43.347-4.714-63.007-13.747    l200.26-200.26C402.286,212.653,407,234.113,407,256C407,339.262,339.262,407,256,407z" fill="#D80027"/>
	</g>
</g>
<g>
</g>
<g>
</g>
<g>
</g>
<g>
</g>
<g>
</g>
<g>
</g>
<g>
</g>
<g>
</g>
<g>
</g>
<g>
</g>
<g>
</g>
<g>
</g>
<g>
</g>
<g>
</g>
<g>
</g>
</svg>
